<svg width="974" height="373" viewBox="0 0 974 373" fill="none" xmlns="http://www.w3.org/2000/svg">
<g filter="url(#filter0_iii_13_157)">
<rect x="23.9395" y="26.667" width="322.666" height="322.666" rx="161.333" fill="#D8D1E0"/>
</g>
<rect x="23.9395" y="26.667" width="322.666" height="322.666" rx="161.333" fill="url(#paint0_linear_13_157)"/>
<rect x="23.9395" y="26.667" width="322.666" height="322.666" rx="161.333" fill="url(#paint1_radial_13_157)"/>
<rect x="23.9395" y="26.667" width="322.666" height="322.666" rx="161.333" fill="url(#paint2_radial_13_157)"/>
<path fill-rule="evenodd" clip-rule="evenodd" d="M140.557 45.3958H130.199V132.309H42.3958V142.667H130.199V235.568H42.3958V245.927H130.199V334.458H140.557V245.927H233.782V334.458H244.141V245.927H331.458V235.568H244.141V142.667H331.458V132.309H244.141V45.3958H233.782V132.309H140.557V45.3958ZM233.782 142.667V235.568H140.557V142.667H233.782Z" fill="url(#paint3_linear_13_157)"/>
<path fill-rule="evenodd" clip-rule="evenodd" d="M140.557 45.3958H130.199V132.309H42.3958V142.667H130.199V235.568H42.3958V245.927H130.199V334.458H140.557V245.927H233.782V334.458H244.141V245.927H331.458V235.568H244.141V142.667H331.458V132.309H244.141V45.3958H233.782V132.309H140.557V45.3958ZM233.782 142.667V235.568H140.557V142.667H233.782Z" fill="url(#paint4_linear_13_157)"/>
<path fill-rule="evenodd" clip-rule="evenodd" d="M140.557 45.3958H130.199V132.309H42.3958V142.667H130.199V235.568H42.3958V245.927H130.199V334.458H140.557V245.927H233.782V334.458H244.141V245.927H331.458V235.568H244.141V142.667H331.458V132.309H244.141V45.3958H233.782V132.309H140.557V45.3958ZM233.782 142.667V235.568H140.557V142.667H233.782Z" fill="url(#paint5_linear_13_157)"/>
<path fill-rule="evenodd" clip-rule="evenodd" d="M140.557 45.3958H130.199V132.309H42.3958V142.667H130.199V235.568H42.3958V245.927H130.199V334.458H140.557V245.927H233.782V334.458H244.141V245.927H331.458V235.568H244.141V142.667H331.458V132.309H244.141V45.3958H233.782V132.309H140.557V45.3958ZM233.782 142.667V235.568H140.557V142.667H233.782Z" fill="url(#paint6_linear_13_157)"/>
<g filter="url(#filter1_f_13_157)">
<path d="M53.5684 294C52.5486 290.685 52 287.165 52 283.518V268.886L119.262 202.093C128.391 193.028 143.143 192.869 152.468 201.735L170.767 219.135C172.631 220.908 175.58 220.877 177.407 219.065L315.566 82C316.5 85.1838 317 88.5507 317 92.0337V107.237L190.83 232.408C181.699 241.466 166.954 241.621 157.632 232.757L139.333 215.357C137.468 213.584 134.517 213.616 132.692 215.429L53.5684 294Z" fill="#B19AA4"/>
<path d="M53.5684 294C52.5486 290.685 52 287.165 52 283.518V268.886L119.262 202.093C128.391 193.028 143.143 192.869 152.468 201.735L170.767 219.135C172.631 220.908 175.58 220.877 177.407 219.065L315.566 82C316.5 85.1838 317 88.5507 317 92.0337V107.237L190.83 232.408C181.699 241.466 166.954 241.621 157.632 232.757L139.333 215.357C137.468 213.584 134.517 213.616 132.692 215.429L53.5684 294Z" fill="url(#paint7_radial_13_157)"/>
</g>
<g filter="url(#filter2_i_13_157)">
<path d="M44.6808 303C43.5879 299.419 43 295.617 43 291.678V275.872L115.085 203.723C124.868 193.931 140.677 193.759 150.671 203.337L170.282 222.132C172.28 224.047 175.441 224.013 177.398 222.057L325.463 74C326.464 77.4391 327 81.076 327 84.8383V101.26L191.784 236.469C181.998 246.253 166.196 246.421 156.206 236.846L136.594 218.051C134.595 216.136 131.434 216.17 129.477 218.128L44.6808 303Z" fill="url(#paint8_linear_13_157)"/>
</g>
<g filter="url(#filter3_f_13_157)">
<path d="M51 281L127.786 203.513C128.361 202.932 129.296 202.919 129.888 203.485L169.095 240.968C169.683 241.53 170.612 241.521 171.189 240.947L318 95" stroke="url(#paint9_radial_13_157)" stroke-width="0.5"/>
<path d="M51 281L127.786 203.513C128.361 202.932 129.296 202.919 129.888 203.485L169.095 240.968C169.683 241.53 170.612 241.521 171.189 240.947L318 95" stroke="url(#paint10_linear_13_157)" stroke-width="0.5"/>
</g>
<path d="M404.56 232.48V148.48H424.96V232.48H404.56ZM414.04 200.32V183.28H457.48V200.32H414.04ZM414.04 166.48V148.48H462.4V166.48H414.04Z" fill="black"/>
<path d="M493.662 233.56C488.302 233.56 483.502 232.16 479.262 229.36C475.102 226.48 471.782 222.56 469.302 217.6C466.822 212.56 465.582 206.88 465.582 200.56C465.582 194.08 466.822 188.36 469.302 183.4C471.782 178.44 475.182 174.56 479.502 171.76C483.822 168.88 488.742 167.44 494.262 167.44C497.302 167.44 500.062 167.88 502.542 168.76C505.102 169.64 507.342 170.88 509.262 172.48C511.182 174 512.822 175.8 514.182 177.88C515.542 179.88 516.542 182.04 517.182 184.36L513.222 183.88V168.76H532.302V232.48H512.862V217.12L517.182 217C516.542 219.24 515.502 221.36 514.062 223.36C512.622 225.36 510.862 227.12 508.782 228.64C506.702 230.16 504.382 231.36 501.822 232.24C499.262 233.12 496.542 233.56 493.662 233.56ZM498.942 217.36C501.902 217.36 504.462 216.68 506.622 215.32C508.782 213.96 510.462 212.04 511.662 209.56C512.862 207 513.462 204 513.462 200.56C513.462 197.12 512.862 194.16 511.662 191.68C510.462 189.12 508.782 187.16 506.622 185.8C504.462 184.36 501.902 183.64 498.942 183.64C496.062 183.64 493.542 184.36 491.382 185.8C489.302 187.16 487.662 189.12 486.462 191.68C485.262 194.16 484.662 197.12 484.662 200.56C484.662 204 485.262 207 486.462 209.56C487.662 212.04 489.302 213.96 491.382 215.32C493.542 216.68 496.062 217.36 498.942 217.36Z" fill="black"/>
<path d="M572.403 233.68C566.243 233.68 560.723 232.24 555.843 229.36C550.963 226.48 547.083 222.56 544.203 217.6C541.403 212.56 540.003 206.88 540.003 200.56C540.003 194.24 541.403 188.6 544.203 183.64C547.083 178.6 550.963 174.64 555.843 171.76C560.723 168.88 566.243 167.44 572.403 167.44C578.083 167.44 583.283 168.44 588.003 170.44C592.803 172.44 596.603 175.24 599.403 178.84L588.963 191.32C587.843 190.04 586.523 188.84 585.003 187.72C583.483 186.6 581.803 185.72 579.963 185.08C578.123 184.44 576.203 184.12 574.203 184.12C571.163 184.12 568.483 184.84 566.163 186.28C563.843 187.64 562.043 189.56 560.763 192.04C559.483 194.52 558.843 197.36 558.843 200.56C558.843 203.6 559.483 206.36 560.763 208.84C562.123 211.32 563.963 213.28 566.283 214.72C568.603 216.16 571.243 216.88 574.203 216.88C576.283 216.88 578.203 216.64 579.963 216.16C581.723 215.6 583.323 214.8 584.763 213.76C586.283 212.72 587.683 211.44 588.963 209.92L599.283 222.52C596.563 225.96 592.764 228.68 587.883 230.68C583.083 232.68 577.923 233.68 572.403 233.68Z" fill="black"/>
<path d="M610.314 232.48V152.68H629.514V232.48H610.314ZM599.034 185.56V168.76H641.874V185.56H599.034Z" fill="black"/>
<path d="M669.767 233.8C665.047 233.8 661.007 232.8 657.647 230.8C654.367 228.72 651.807 225.76 649.967 221.92C648.207 218.08 647.327 213.48 647.327 208.12V168.76H666.647V205.48C666.647 208.04 667.047 210.24 667.847 212.08C668.647 213.92 669.847 215.36 671.447 216.4C673.047 217.36 674.967 217.84 677.207 217.84C678.887 217.84 680.407 217.56 681.767 217C683.207 216.44 684.407 215.68 685.367 214.72C686.407 213.68 687.207 212.52 687.767 211.24C688.327 209.88 688.607 208.4 688.607 206.8V168.76H707.927V232.48H689.807L688.967 219.4L692.567 217.96C691.607 221 690.007 223.72 687.767 226.12C685.527 228.44 682.847 230.32 679.727 231.76C676.607 233.12 673.287 233.8 669.767 233.8Z" fill="black"/>
<path d="M720.239 232.48V168.76H738.479L739.319 189.52L735.719 185.56C736.679 182.12 738.239 179.04 740.399 176.32C742.639 173.6 745.239 171.44 748.199 169.84C751.159 168.24 754.319 167.44 757.679 167.44C759.119 167.44 760.439 167.56 761.639 167.8C762.919 168.04 764.079 168.32 765.119 168.64L759.839 189.88C758.959 189.32 757.759 188.88 756.239 188.56C754.799 188.16 753.279 187.96 751.679 187.96C749.919 187.96 748.279 188.28 746.759 188.92C745.239 189.48 743.959 190.32 742.919 191.44C741.879 192.56 741.039 193.88 740.399 195.4C739.839 196.92 739.559 198.64 739.559 200.56V232.48H720.239Z" fill="black"/>
<path d="M797.713 233.68C790.673 233.68 784.553 232.28 779.353 229.48C774.153 226.6 770.113 222.72 767.233 217.84C764.353 212.88 762.913 207.24 762.913 200.92C762.913 196.04 763.713 191.56 765.313 187.48C766.913 183.4 769.153 179.88 772.033 176.92C774.913 173.88 778.313 171.56 782.233 169.96C786.233 168.28 790.593 167.44 795.313 167.44C799.793 167.44 803.873 168.24 807.553 169.84C811.313 171.44 814.553 173.68 817.273 176.56C819.993 179.44 822.073 182.84 823.513 186.76C824.953 190.68 825.593 194.96 825.433 199.6L825.313 204.76H774.553L771.793 193.96H809.713L807.673 196.24V193.84C807.513 191.84 806.873 190.08 805.753 188.56C804.713 186.96 803.313 185.72 801.553 184.84C799.793 183.96 797.793 183.52 795.553 183.52C792.433 183.52 789.753 184.16 787.513 185.44C785.353 186.64 783.713 188.44 782.593 190.84C781.473 193.16 780.913 196.04 780.913 199.48C780.913 203 781.633 206.08 783.073 208.72C784.593 211.28 786.753 213.28 789.553 214.72C792.433 216.16 795.833 216.88 799.753 216.88C802.473 216.88 804.873 216.48 806.953 215.68C809.113 214.88 811.433 213.52 813.913 211.6L822.913 224.32C820.433 226.48 817.793 228.24 814.993 229.6C812.193 230.96 809.313 231.96 806.353 232.6C803.473 233.32 800.593 233.68 797.713 233.68ZM785.833 161.8L780.193 153.04L801.673 136L810.433 148.6L785.833 161.8Z" fill="black"/>
<path d="M862.865 233.68C856.225 233.68 850.305 232.24 845.105 229.36C839.985 226.48 835.905 222.56 832.865 217.6C829.905 212.64 828.425 206.96 828.425 200.56C828.425 194.16 829.905 188.48 832.865 183.52C835.905 178.56 839.985 174.64 845.105 171.76C850.305 168.88 856.225 167.44 862.865 167.44C869.505 167.44 875.385 168.88 880.505 171.76C885.705 174.64 889.785 178.56 892.745 183.52C895.705 188.48 897.185 194.16 897.185 200.56C897.185 206.96 895.705 212.64 892.745 217.6C889.785 222.56 885.705 226.48 880.505 229.36C875.385 232.24 869.505 233.68 862.865 233.68ZM862.865 217.12C865.745 217.12 868.305 216.4 870.545 214.96C872.785 213.52 874.545 211.56 875.825 209.08C877.105 206.6 877.705 203.76 877.625 200.56C877.705 197.36 877.105 194.52 875.825 192.04C874.545 189.48 872.785 187.48 870.545 186.04C868.305 184.6 865.745 183.88 862.865 183.88C859.985 183.88 857.385 184.6 855.065 186.04C852.825 187.48 851.065 189.48 849.785 192.04C848.505 194.52 847.905 197.36 847.985 200.56C847.905 203.76 848.505 206.6 849.785 209.08C851.065 211.56 852.825 213.52 855.065 214.96C857.385 216.4 859.985 217.12 862.865 217.12Z" fill="black"/>
<defs>
<filter id="filter0_iii_13_157" x="22.9395" y="25.667" width="324.666" height="324.666" filterUnits="userSpaceOnUse" color-interpolation-filters="sRGB">
<feFlood flood-opacity="0" result="BackgroundImageFix"/>
<feBlend mode="normal" in="SourceGraphic" in2="BackgroundImageFix" result="shape"/>
<feColorMatrix in="SourceAlpha" type="matrix" values="0 0 0 0 0 0 0 0 0 0 0 0 0 0 0 0 0 0 127 0" result="hardAlpha"/>
<feOffset dx="-1" dy="1"/>
<feGaussianBlur stdDeviation="1"/>
<feComposite in2="hardAlpha" operator="arithmetic" k2="-1" k3="1"/>
<feColorMatrix type="matrix" values="0 0 0 0 0.878431 0 0 0 0 0.87451 0 0 0 0 0.886275 0 0 0 1 0"/>
<feBlend mode="normal" in2="shape" result="effect1_innerShadow_13_157"/>
<feColorMatrix in="SourceAlpha" type="matrix" values="0 0 0 0 0 0 0 0 0 0 0 0 0 0 0 0 0 0 127 0" result="hardAlpha"/>
<feOffset dx="1" dy="-1"/>
<feGaussianBlur stdDeviation="1"/>
<feComposite in2="hardAlpha" operator="arithmetic" k2="-1" k3="1"/>
<feColorMatrix type="matrix" values="0 0 0 0 0.72549 0 0 0 0 0.698039 0 0 0 0 0.74902 0 0 0 1 0"/>
<feBlend mode="normal" in2="effect1_innerShadow_13_157" result="effect2_innerShadow_13_157"/>
<feColorMatrix in="SourceAlpha" type="matrix" values="0 0 0 0 0 0 0 0 0 0 0 0 0 0 0 0 0 0 127 0" result="hardAlpha"/>
<feOffset dx="0.25"/>
<feGaussianBlur stdDeviation="0.25"/>
<feComposite in2="hardAlpha" operator="arithmetic" k2="-1" k3="1"/>
<feColorMatrix type="matrix" values="0 0 0 0 0.729412 0 0 0 0 0.729412 0 0 0 0 0.729412 0 0 0 1 0"/>
<feBlend mode="normal" in2="effect2_innerShadow_13_157" result="effect3_innerShadow_13_157"/>
</filter>
<filter id="filter1_f_13_157" x="51" y="81" width="267" height="214" filterUnits="userSpaceOnUse" color-interpolation-filters="sRGB">
<feFlood flood-opacity="0" result="BackgroundImageFix"/>
<feBlend mode="normal" in="SourceGraphic" in2="BackgroundImageFix" result="shape"/>
<feGaussianBlur stdDeviation="0.5" result="effect1_foregroundBlur_13_157"/>
</filter>
<filter id="filter2_i_13_157" x="43" y="74" width="284.25" height="229.25" filterUnits="userSpaceOnUse" color-interpolation-filters="sRGB">
<feFlood flood-opacity="0" result="BackgroundImageFix"/>
<feBlend mode="normal" in="SourceGraphic" in2="BackgroundImageFix" result="shape"/>
<feColorMatrix in="SourceAlpha" type="matrix" values="0 0 0 0 0 0 0 0 0 0 0 0 0 0 0 0 0 0 127 0" result="hardAlpha"/>
<feOffset dx="0.25" dy="0.25"/>
<feGaussianBlur stdDeviation="0.25"/>
<feComposite in2="hardAlpha" operator="arithmetic" k2="-1" k3="1"/>
<feColorMatrix type="matrix" values="0 0 0 0 0.835294 0 0 0 0 0.239216 0 0 0 0 0.356863 0 0 0 1 0"/>
<feBlend mode="normal" in2="shape" result="effect1_innerShadow_13_157"/>
</filter>
<filter id="filter3_f_13_157" x="50.2225" y="94.2228" width="268.554" height="187.553" filterUnits="userSpaceOnUse" color-interpolation-filters="sRGB">
<feFlood flood-opacity="0" result="BackgroundImageFix"/>
<feBlend mode="normal" in="SourceGraphic" in2="BackgroundImageFix" result="shape"/>
<feGaussianBlur stdDeviation="0.3" result="effect1_foregroundBlur_13_157"/>
</filter>
<linearGradient id="paint0_linear_13_157" x1="248.579" y1="352.369" x2="248.579" y2="325.803" gradientUnits="userSpaceOnUse">
<stop stop-color="#A88AC4"/>
<stop offset="1" stop-color="#CDBCE0" stop-opacity="0"/>
</linearGradient>
<radialGradient id="paint1_radial_13_157" cx="0" cy="0" r="1" gradientUnits="userSpaceOnUse" gradientTransform="translate(346.605 192.571) rotate(177.86) scale(64.6631 252.106)">
<stop stop-color="#F2EDF5"/>
<stop offset="1" stop-color="#DED3E7" stop-opacity="0"/>
</radialGradient>
<radialGradient id="paint2_radial_13_157" cx="0" cy="0" r="1" gradientUnits="userSpaceOnUse" gradientTransform="translate(342.364 36.3962) rotate(138.434) scale(57.0264 59.0265)">
<stop stop-color="#F7F4F7"/>
<stop offset="1" stop-color="#E2DCE5" stop-opacity="0"/>
</radialGradient>
<linearGradient id="paint3_linear_13_157" x1="186.927" y1="69.3494" x2="186.927" y2="334.458" gradientUnits="userSpaceOnUse">
<stop stop-color="#C2BEC6"/>
<stop offset="1" stop-color="#BAACC6"/>
</linearGradient>
<linearGradient id="paint4_linear_13_157" x1="246.165" y1="341.866" x2="246.165" y2="305.807" gradientUnits="userSpaceOnUse">
<stop stop-color="#9E83B7"/>
<stop offset="1" stop-color="#9E83B7" stop-opacity="0"/>
</linearGradient>
<linearGradient id="paint5_linear_13_157" x1="32.3611" y1="204.008" x2="87.3898" y2="204.008" gradientUnits="userSpaceOnUse">
<stop stop-color="#96909C"/>
<stop offset="1" stop-color="#96909C" stop-opacity="0"/>
</linearGradient>
<linearGradient id="paint6_linear_13_157" x1="339.874" y1="211.129" x2="300.383" y2="211.129" gradientUnits="userSpaceOnUse">
<stop stop-color="#D6D1DA"/>
<stop offset="1" stop-color="#D6D1DA" stop-opacity="0"/>
</linearGradient>
<radialGradient id="paint7_radial_13_157" cx="0" cy="0" r="1" gradientUnits="userSpaceOnUse" gradientTransform="translate(133.135 217.882) rotate(71.809) scale(30.6339 38.2405)">
<stop offset="0.57821" stop-color="#814F7C"/>
<stop offset="1" stop-color="#814F7C" stop-opacity="0"/>
</radialGradient>
<linearGradient id="paint8_linear_13_157" x1="303.466" y1="161.997" x2="63.6095" y2="261.16" gradientUnits="userSpaceOnUse">
<stop stop-color="#DA267D"/>
<stop offset="1" stop-color="#DF2B49"/>
</linearGradient>
<radialGradient id="paint9_radial_13_157" cx="0" cy="0" r="1" gradientUnits="userSpaceOnUse" gradientTransform="translate(152.68 218.527) rotate(122.642) scale(72.5048 98.2374)">
<stop stop-color="#F35571"/>
<stop offset="1" stop-color="#F35571" stop-opacity="0"/>
</radialGradient>
<linearGradient id="paint10_linear_13_157" x1="326.533" y1="95" x2="184.742" y2="247.503" gradientUnits="userSpaceOnUse">
<stop stop-color="#EE4591"/>
<stop offset="1" stop-color="#EE4591" stop-opacity="0"/>
</linearGradient>
</defs>
</svg>
